<svg width="14" height="14" viewBox="0 0 14 14" fill="none" xmlns="http://www.w3.org/2000/svg">
  <path id="Vector"
    d="M0.583334 14H9.91667C10.0714 14 10.2197 13.9385 10.3291 13.8291C10.4385 13.7197 10.5 13.5714 10.5 13.4167V10.5H13.4167C13.5714 10.5 13.7197 10.4385 13.8291 10.3291C13.9385 10.2197 14 10.0714 14 9.91667V0.583334C14 0.428624 13.9385 0.280251 13.8291 0.170854C13.7197 0.0614582 13.5714 4.76837e-07 13.4167 4.76837e-07H4.08333C3.92862 4.76837e-07 3.78025 0.0614582 3.67085 0.170854C3.56146 0.280251 3.5 0.428624 3.5 0.583334V3.5H0.583334C0.428624 3.5 0.280251 3.56146 0.170854 3.67085C0.0614582 3.78025 4.76837e-07 3.92862 4.76837e-07 4.08333V13.4167C4.76837e-07 13.5714 0.0614582 13.7197 0.170854 13.8291C0.280251 13.9385 0.428624 14 0.583334 14ZM4.66667 1.16667H12.8333V9.33333H4.66667V1.16667ZM1.16667 4.66667H3.5V9.91667C3.5 10.0714 3.56146 10.2197 3.67085 10.3291C3.78025 10.4385 3.92862 10.5 4.08333 10.5H9.33333V12.8333H1.16667V4.66667Z"
    fill="currentColor" />
</svg>