<svg width="14" height="14" viewBox="0 0 14 14" fill="none" xmlns="http://www.w3.org/2000/svg">
  <g id="Group 2">
    <path id="Vector"
      d="M14 8.55556V12.4444C14 12.857 13.8361 13.2527 13.5444 13.5444C13.2527 13.8361 12.857 14 12.4444 14H1.55556C1.143 14 0.747335 13.8361 0.455612 13.5444C0.163888 13.2527 0 12.857 0 12.4444V1.55556C0 1.143 0.163888 0.747335 0.455612 0.455612C0.747335 0.163888 1.143 0 1.55556 0H5.44444V1.55556H1.55556V12.4444H12.4444V8.55556H14Z"
      fill="currentColor" />
    <path id="Vector_2" d="M14 3.2H10.8V0H9.2V3.2H6V4.8H9.2V8H10.8V4.8H14V3.2Z" fill="currentColor" />
  </g>
</svg>