<svg width="15" height="12" viewBox="0 0 15 12" xmlns="http://www.w3.org/2000/svg">
  <path id="Vector"
    d="M5.55555 6.77776C5.77593 6.77776 5.96078 6.7031 6.11011 6.55376C6.25944 6.40443 6.33385 6.21984 6.33333 5.99999C6.33333 5.77962 6.25867 5.59476 6.10933 5.44543C5.96 5.2961 5.77541 5.22169 5.55555 5.22221C5.33518 5.22221 5.15033 5.29688 5.001 5.44621C4.85167 5.59554 4.77726 5.78013 4.77778 5.99999C4.77778 6.22036 4.85244 6.40521 5.00178 6.55454C5.15111 6.70388 5.3357 6.77828 5.55555 6.77776ZM8.27778 6.77776C8.49815 6.77776 8.683 6.7031 8.83233 6.55376C8.98167 6.40443 9.05607 6.21984 9.05555 5.99999C9.05555 5.77962 8.98089 5.59476 8.83155 5.44543C8.68222 5.2961 8.49763 5.22169 8.27778 5.22221C8.05741 5.22221 7.87255 5.29688 7.72322 5.44621C7.57389 5.59554 7.49948 5.78013 7.5 5.99999C7.5 6.22036 7.57467 6.40521 7.724 6.55454C7.87333 6.70388 8.05792 6.77828 8.27778 6.77776ZM11 6.77776C11.2204 6.77776 11.4052 6.7031 11.5546 6.55376C11.7039 6.40443 11.7783 6.21984 11.7778 5.99999C11.7778 5.77962 11.7031 5.59476 11.5538 5.44543C11.4044 5.2961 11.2199 5.22169 11 5.22221C10.7796 5.22221 10.5948 5.29688 10.4454 5.44621C10.2961 5.59554 10.2217 5.78013 10.2222 5.99999C10.2222 6.22036 10.2969 6.40521 10.4462 6.55454C10.5956 6.70388 10.7801 6.77828 11 6.77776ZM0.5 5.99999L3.88333 1.21665C4.02593 1.00925 4.21078 0.847209 4.43789 0.730542C4.665 0.613875 4.90793 0.555542 5.16667 0.555542H12.9444C13.3722 0.555542 13.7386 0.707986 14.0434 1.01288C14.3483 1.31776 14.5005 1.68384 14.5 2.1111V9.88887C14.5 10.3167 14.3476 10.683 14.0427 10.9879C13.7378 11.2928 13.3717 11.4449 12.9444 11.4444H5.16667C4.90741 11.4444 4.66422 11.3861 4.43711 11.2694C4.21 11.1528 4.02541 10.9907 3.88333 10.7833L0.5 5.99999ZM2.40556 5.99999L5.16667 9.88887H12.9444V2.1111H5.16667L2.40556 5.99999ZM12.9444 5.99999V2.1111V9.88887V5.99999Z"
    fill="currentColor" />
</svg>