<svg width="37" height="29" viewBox="0 0 37 29" fill="none" xmlns="http://www.w3.org/2000/svg">
<g clip-path="url(#clip0_44_3683)">
<path d="M13.3275 27.2076L16.256 27.1263" stroke="white" stroke-miterlimit="10" stroke-linejoin="round"/>
<path d="M19.7599 26.373L20.9825 19.7763" stroke="white" stroke-miterlimit="10" stroke-linejoin="round"/>
<path d="M23.6831 15.79L22.3825 12.8496" stroke="white" stroke-miterlimit="10" stroke-linejoin="round"/>
<path d="M22.3656 21.5182L21.2707 19.9769" stroke="white" stroke-miterlimit="10" stroke-linejoin="round"/>
<path d="M22.1477 24.8954L20.956 19.9332" stroke="white" stroke-miterlimit="10" stroke-linejoin="round"/>
<path d="M22.2523 9.78529L20.6061 9.33051" stroke="white" stroke-miterlimit="10" stroke-linejoin="round"/>
<path d="M21.5948 12.4157L18.2249 12.0801L19.7146 9.46201" stroke="white" stroke-miterlimit="10" stroke-linejoin="round"/>
<path d="M15.7774 27.0956C15.7774 26.6957 16.1361 26.3716 16.5785 26.3716C17.021 26.3716 17.3798 26.6957 17.3798 27.0956C17.3798 27.4954 17.021 27.8196 16.5785 27.8196C16.1361 27.8196 15.7774 27.4954 15.7774 27.0956Z" fill="white"/>
<path d="M22.0559 12.8185L21.0626 19.1959L16.6287 27.2515" stroke="white" stroke-miterlimit="10" stroke-linejoin="round"/>
<path d="M17.6219 12.0464C17.6219 11.6017 18.003 11.2409 18.4733 11.2409C18.9435 11.2409 19.3246 11.6017 19.3246 12.0464C19.3246 12.4914 18.9435 12.852 18.4733 12.852C18.003 12.852 17.6219 12.4914 17.6219 12.0464Z" fill="white"/>
<path d="M19.0762 9.04244C19.0762 8.5697 19.4732 8.18661 19.963 8.18661C20.4527 8.18661 20.8499 8.5697 20.8499 9.04244C20.8499 9.51524 20.4527 9.89846 19.963 9.89846C19.4732 9.89846 19.0762 9.51524 19.0762 9.04244Z" fill="white"/>
<path d="M22.5432 10.0452L24.2185 7.60175" stroke="white" stroke-miterlimit="10" stroke-linejoin="round"/>
<path d="M30.4845 26.2399L31.7977 28.0774" stroke="white" stroke-miterlimit="10" stroke-linejoin="round"/>
<path d="M24.3835 28.1105L26.5697 25.0656" stroke="white" stroke-miterlimit="10" stroke-linejoin="round"/>
<path d="M26.9485 25.2904L30.1829 25.7276" stroke="white" stroke-miterlimit="10" stroke-linejoin="round"/>
<path d="M30.2084 25.8491L31.4149 22.157" stroke="white" stroke-miterlimit="10" stroke-linejoin="round"/>
<path d="M15.2773 23.605L20.0746 19.7647" stroke="white" stroke-miterlimit="10" stroke-linejoin="round"/>
<path d="M17.834 16.6037L21.479 13.1744" stroke="white" stroke-miterlimit="10" stroke-linejoin="round"/>
<path d="M11.6156 27.1581C11.6156 26.75 12 26.4191 12.474 26.4191C12.9483 26.4191 13.3326 26.75 13.3326 27.1581C13.3326 27.5663 12.9483 27.8972 12.474 27.8972C12 27.8972 11.6156 27.5663 11.6156 27.1581Z" fill="white" stroke="white" stroke-miterlimit="10" stroke-linejoin="round"/>
<path d="M15.257 23.6584L12.6081 27.017" stroke="white" stroke-miterlimit="10" stroke-linejoin="round"/>
<path d="M22.8597 21.5009L24.9283 19.462L24.0089 16.1452" stroke="white" stroke-miterlimit="10" stroke-linejoin="round"/>
<path d="M23.0571 25.0592L26.3687 25.0915L28.21 20.9436L26.7042 18.1793L24.0929 15.9054" stroke="white" stroke-miterlimit="10" stroke-linejoin="round"/>
<path d="M20.2245 26.2544L22.2097 24.6981L22.5122 21.9609L23.8356 15.8781L24.365 11.8529L22.6444 9.84918" stroke="white" stroke-miterlimit="10" stroke-linejoin="round"/>
<path d="M25.9807 25.179C25.9807 24.7862 26.3375 24.4679 26.7774 24.4679C27.2175 24.4679 27.5741 24.7862 27.5741 25.179C27.5741 25.5717 27.2175 25.89 26.7774 25.89C26.3375 25.89 25.9807 25.5717 25.9807 25.179Z" fill="white" stroke="white" stroke-miterlimit="10" stroke-linejoin="round"/>
<path d="M27.1215 20.6385C27.1215 20.2836 27.4418 19.9959 27.8367 19.9959C28.2317 19.9959 28.552 20.2836 28.552 20.6385C28.552 20.9932 28.2317 21.281 27.8367 21.281C27.4418 21.281 27.1215 20.9932 27.1215 20.6385Z" fill="white" stroke="white" stroke-miterlimit="10" stroke-linejoin="round"/>
<path d="M21.6088 24.751C21.6088 24.3546 21.9768 24.0332 22.4306 24.0332C22.8845 24.0332 23.2523 24.3546 23.2523 24.751C23.2523 25.1474 22.8845 25.4687 22.4306 25.4687C21.9768 25.4687 21.6088 25.1474 21.6088 24.751Z" fill="white" stroke="white" stroke-miterlimit="10" stroke-linejoin="round"/>
<path d="M15.5475 10.1886L16.8462 8.21219" stroke="white" stroke-miterlimit="10" stroke-linejoin="round"/>
<path d="M15.9452 19.5907L15.2709 23.0161" stroke="white" stroke-miterlimit="10" stroke-linejoin="round"/>
<path d="M15.3815 18.9301C15.3815 18.607 15.6662 18.3451 16.0176 18.3451C16.3689 18.3451 16.6536 18.607 16.6536 18.9301C16.6536 19.253 16.3689 19.515 16.0176 19.515C15.6662 19.515 15.3815 19.253 15.3815 18.9301Z" fill="white" stroke="white" stroke-miterlimit="10" stroke-linejoin="round"/>
<path d="M14.8576 16.8369L16.6063 16.7144" stroke="white" stroke-miterlimit="10" stroke-linejoin="round"/>
<path d="M16.4984 16.7756C16.4984 16.3018 16.9092 15.9177 17.416 15.9177C17.9227 15.9177 18.3336 16.3018 18.3336 16.7756C18.3336 17.2495 17.9227 17.6337 17.416 17.6337C16.9092 17.6337 16.4984 17.2495 16.4984 16.7756Z" fill="white" stroke="white" stroke-miterlimit="10" stroke-linejoin="round"/>
<path d="M12.5266 15.1005L14.9307 11.0726" stroke="white" stroke-miterlimit="10" stroke-linejoin="round"/>
<path d="M14.1686 6.9733L16.5765 7.50844" stroke="white" stroke-miterlimit="10" stroke-linejoin="round"/>
<path d="M13.9586 6.38561L15.3987 4.72232" stroke="white" stroke-miterlimit="10" stroke-linejoin="round"/>
<path d="M13.0412 6.86373C13.0412 6.55736 13.3376 6.3089 13.7033 6.3089C14.0691 6.3089 14.3655 6.55736 14.3655 6.86373C14.3655 7.17006 14.0691 7.41838 13.7033 7.41838C13.3376 7.41838 13.0412 7.17006 13.0412 6.86373Z" fill="white" stroke="white" stroke-miterlimit="10" stroke-linejoin="round"/>
<path d="M13.9097 8.32226L13.5622 7.33612" stroke="white" stroke-miterlimit="10" stroke-linejoin="round"/>
<path d="M11.5679 11.38C11.5679 11.0337 11.8992 10.7529 12.3077 10.7529C12.7162 10.7529 13.0474 11.0337 13.0474 11.38C13.0474 11.7261 12.7162 12.0069 12.3077 12.0069C11.8992 12.0069 11.5679 11.7261 11.5679 11.38Z" fill="white" stroke="white" stroke-miterlimit="10" stroke-linejoin="round"/>
<path d="M7.48798 25.3519L9.23876 21.6096" stroke="white" stroke-miterlimit="10" stroke-linejoin="round"/>
<path d="M5.93716 26.1685C5.93716 25.627 6.42611 25.1881 7.02926 25.1881C7.63245 25.1881 8.1214 25.627 8.1214 26.1685C8.1214 26.7101 7.63245 27.149 7.02926 27.149C6.42611 27.149 5.93716 26.7101 5.93716 26.1685Z" fill="white" stroke="white" stroke-miterlimit="10" stroke-linejoin="round"/>
<path d="M11.6923 18.5115L12.155 15.9574" stroke="white" stroke-miterlimit="10" stroke-linejoin="round"/>
<path d="M10.6127 19.1864C10.6127 18.733 11.0183 18.3654 11.5188 18.3654C12.0192 18.3654 12.4249 18.733 12.4249 19.1864C12.4249 19.6398 12.0192 20.0073 11.5188 20.0073C11.0183 20.0073 10.6127 19.6398 10.6127 19.1864Z" fill="white" stroke="white" stroke-miterlimit="10" stroke-linejoin="round"/>
<path d="M9.95712 20.7005L11.3451 19.1681" stroke="white" stroke-miterlimit="10" stroke-linejoin="round"/>
<path d="M9.34995 15.3224L11.7653 15.5576" stroke="white" stroke-miterlimit="10" stroke-linejoin="round"/>
<path d="M2.64297 24.4845L8.50252 21.9234" stroke="white" stroke-miterlimit="10" stroke-linejoin="round"/>
<path d="M12.1227 15.1398L12.2386 11.2134L13.9075 9.2009" stroke="white" stroke-miterlimit="10" stroke-linejoin="round"/>
<path d="M13.6363 8.77807C13.6363 8.44494 13.9227 8.17468 14.276 8.17468C14.6292 8.17468 14.9155 8.44494 14.9155 8.77807C14.9155 9.11138 14.6292 9.38146 14.276 9.38146C13.9227 9.38146 13.6363 9.11138 13.6363 8.77807Z" fill="white" stroke="white" stroke-miterlimit="10" stroke-linejoin="round"/>
<path d="M15.2824 4.37378C15.2824 4.19857 15.456 4.0567 15.6701 4.0567C15.8841 4.0567 16.0576 4.19857 16.0576 4.37378C16.0576 4.54882 15.8841 4.69069 15.6701 4.69069C15.456 4.69069 15.2824 4.54882 15.2824 4.37378Z" fill="white" stroke="white" stroke-miterlimit="10" stroke-linejoin="round"/>
<path d="M16.2533 7.85246C16.2533 7.5611 16.5462 7.32489 16.9078 7.32489C17.2691 7.32489 17.5622 7.5611 17.5622 7.85246C17.5622 8.14395 17.2691 8.37998 16.9078 8.37998C16.5462 8.37998 16.2533 8.14395 16.2533 7.85246Z" fill="white" stroke="white" stroke-miterlimit="10" stroke-linejoin="round"/>
<path d="M14.8474 8.79294L16.8028 8.01312" stroke="white" stroke-miterlimit="10" stroke-linejoin="round"/>
<path d="M14.3713 10.7064C14.3713 10.2952 14.7689 9.96207 15.2594 9.96207C15.7497 9.96207 16.1472 10.2952 16.1472 10.7064C16.1472 11.1175 15.7497 11.4507 15.2594 11.4507C14.7689 11.4507 14.3713 11.1175 14.3713 10.7064Z" fill="white" stroke="white" stroke-miterlimit="10" stroke-linejoin="round"/>
<path d="M15.5269 11.2597L14.3394 16.1423" stroke="white" stroke-miterlimit="10" stroke-linejoin="round"/>
<path d="M13.7565 16.6836C13.7565 16.4074 14.0174 16.1833 14.3394 16.1833C14.6613 16.1833 14.9222 16.4074 14.9222 16.6836C14.9222 16.9601 14.6613 17.1842 14.3394 17.1842C14.0174 17.1842 13.7565 16.9601 13.7565 16.6836Z" fill="white" stroke="white" stroke-miterlimit="10" stroke-linejoin="round"/>
<path d="M14.6246 17.174L15.6649 18.5683" stroke="white" stroke-miterlimit="10" stroke-linejoin="round"/>
<path d="M14.3489 23.633C14.3489 23.2805 14.6862 22.9949 15.1021 22.9949C15.5181 22.9949 15.8554 23.2805 15.8554 23.633C15.8554 23.9855 15.5181 24.2713 15.1021 24.2713C14.6862 24.2713 14.3489 23.9855 14.3489 23.633Z" fill="white" stroke="white" stroke-miterlimit="10" stroke-linejoin="round"/>
<path d="M25.7303 17.6689C25.7303 17.2725 26.1266 16.9511 26.6152 16.9511C27.1041 16.9511 27.5004 17.2725 27.5004 17.6689C27.5004 18.0653 27.1041 18.3867 26.6152 18.3867C26.1266 18.3867 25.7303 18.0653 25.7303 17.6689Z" fill="white" stroke="white" stroke-miterlimit="10" stroke-linejoin="round"/>
<path d="M23.3657 15.7749C23.3657 15.529 23.5763 15.3298 23.8361 15.3298C24.0959 15.3298 24.3065 15.529 24.3065 15.7749C24.3065 16.0206 24.0959 16.22 23.8361 16.22C23.5763 16.22 23.3657 16.0206 23.3657 15.7749Z" fill="white" stroke="white" stroke-miterlimit="10" stroke-linejoin="round"/>
<path d="M23.8639 11.8997C23.8639 11.6732 24.0538 11.4895 24.2881 11.4895C24.5224 11.4895 24.7125 11.6732 24.7125 11.8997C24.7125 12.1263 24.5224 12.31 24.2881 12.31C24.0538 12.31 23.8639 12.1263 23.8639 11.8997Z" fill="white" stroke="white" stroke-miterlimit="10" stroke-linejoin="round"/>
<path d="M29.2873 25.9168C29.2873 25.5166 29.6385 25.1923 30.0714 25.1923C30.5044 25.1923 30.8554 25.5166 30.8554 25.9168C30.8554 26.3168 30.5044 26.6411 30.0714 26.6411C29.6385 26.6411 29.2873 26.3168 29.2873 25.9168Z" fill="white" stroke="white" stroke-miterlimit="10" stroke-linejoin="round"/>
<path d="M30.9476 21.8932C30.9476 21.6424 31.183 21.4392 31.4734 21.4392C31.7639 21.4392 31.9993 21.6424 31.9993 21.8932C31.9993 22.1439 31.7639 22.3471 31.4734 22.3471C31.183 22.3471 30.9476 22.1439 30.9476 21.8932Z" fill="white" stroke="white" stroke-miterlimit="10" stroke-linejoin="round"/>
<path d="M22.1483 21.6051C22.1483 21.4074 22.334 21.2473 22.5633 21.2473C22.7925 21.2473 22.9784 21.4074 22.9784 21.6051C22.9784 21.8028 22.7925 21.963 22.5633 21.963C22.334 21.963 22.1483 21.8028 22.1483 21.6051Z" fill="white" stroke="white" stroke-miterlimit="10" stroke-linejoin="round"/>
<path d="M18.9384 26.711C18.9384 26.3832 19.2357 26.1174 19.6026 26.1174C19.9692 26.1174 20.2665 26.3832 20.2665 26.711C20.2665 27.0387 19.9692 27.3045 19.6026 27.3045C19.2357 27.3045 18.9384 27.0387 18.9384 26.711Z" fill="white" stroke="white" stroke-miterlimit="10" stroke-linejoin="round"/>
<path d="M21.9501 10.008C21.9501 9.7236 22.2105 9.49329 22.5317 9.49329C22.8528 9.49329 23.1132 9.7236 23.1132 10.008C23.1132 10.2922 22.8528 10.5227 22.5317 10.5227C22.2105 10.5227 21.9501 10.2922 21.9501 10.008Z" fill="white" stroke="white" stroke-miterlimit="10" stroke-linejoin="round"/>
<path d="M24.3547 19.4011C24.3547 19.1036 24.6287 18.8622 24.9665 18.8622C25.3043 18.8622 25.5782 19.1036 25.5782 19.4011C25.5782 19.6989 25.3043 19.9401 24.9665 19.9401C24.6287 19.9401 24.3547 19.6989 24.3547 19.4011Z" fill="white" stroke="white" stroke-miterlimit="10" stroke-linejoin="round"/>
<path d="M20.1436 26.9736L22.0115 28.2189" stroke="white" stroke-miterlimit="10" stroke-linejoin="round"/>
<path d="M16.0178 4.12135L17.298 1.68793" stroke="white" stroke-miterlimit="10" stroke-linejoin="round"/>
<path d="M21.2046 12.6171C21.2046 12.1538 21.5778 11.7779 22.0382 11.7779C22.4985 11.7779 22.8718 12.1538 22.8718 12.6171C22.8718 13.0806 22.4985 13.4562 22.0382 13.4562C21.5778 13.4562 21.2046 13.0806 21.2046 12.6171Z" fill="white"/>
<path d="M17.4644 4.14018C17.4644 3.75399 17.8193 3.44089 18.2573 3.44089C18.6953 3.44089 19.0503 3.75399 19.0503 4.14018C19.0503 4.52637 18.6953 4.83945 18.2573 4.83945C17.8193 4.83945 17.4644 4.52637 17.4644 4.14018Z" fill="white"/>
<path d="M19.7503 19.5147C19.7503 18.9308 20.2585 18.4574 20.8854 18.4574C21.5123 18.4574 22.0204 18.9308 22.0204 19.5147C22.0204 20.0985 21.5123 20.572 20.8854 20.572C20.2585 20.572 19.7503 20.0985 19.7503 19.5147Z" fill="white"/>
<path d="M19.3509 5.38877C19.3509 4.99016 19.7083 4.66702 20.1491 4.66702C20.5899 4.66702 20.9471 4.99016 20.9471 5.38877C20.9471 5.78724 20.5899 6.11036 20.1491 6.11036C19.7083 6.11036 19.3509 5.78724 19.3509 5.38877Z" fill="white"/>
<path d="M18.4749 4.43289L20.3443 5.11594L19.8021 8.52217" stroke="white" stroke-miterlimit="10" stroke-linejoin="round"/>
<path d="M26.9001 17.1955L28.0869 14.6193" stroke="white" stroke-miterlimit="10" stroke-linejoin="round"/>
<path d="M30.9491 17.5919L26.6907 17.7239" stroke="white" stroke-miterlimit="10" stroke-linejoin="round"/>
<path d="M0.500427 27.9728L2.92773 23.5514L4.86934 21.2782L5.24916 19.255L6.48181 16.981C6.48181 16.981 7.18878 14.1275 8.32414 12.298C9.45953 10.4687 10.7244 9.09771 10.7244 9.09771L12.0763 6.82968L13.859 3.98521L16.0333 1.54687L17.2758 0.571533L18.8289 1.87198L20.2267 3.33499L21.0743 4.34647L23.191 5.93704L24.9964 8.94134L25.868 11.4156L27.7045 13.9781L29.8213 15.6275L31.5332 18.6614L33.0586 20.841L34.0545 23.5803L36.5341 27.5558H34.0545L31.2536 27.881L27.9921 27.5558L25.2968 28.1225L20.3372 28.2721L16.2591 28.2616L10.3338 28.4641L6.81664 27.7167L4.18923 27.5376L0.500427 27.9728Z" stroke="white" stroke-miterlimit="10" stroke-linejoin="round"/>
<path d="M30.4604 26.0471L36.1151 26.8398" stroke="white" stroke-miterlimit="10" stroke-linejoin="round"/>
<path d="M10.2007 21.8869L14.8764 23.4287L7.86282 25.5739" stroke="white" stroke-miterlimit="10" stroke-linejoin="round"/>
<path d="M0.913696 27.5968L8.67911 21.9839" stroke="white" stroke-miterlimit="10" stroke-linejoin="round"/>
<path d="M8.25653 21.3518C8.25653 20.8281 8.73511 20.4033 9.32547 20.4033C9.91582 20.4033 10.3944 20.8281 10.3944 21.3518C10.3944 21.8757 9.91582 22.3004 9.32547 22.3004C8.73511 22.3004 8.25653 21.8757 8.25653 21.3518Z" fill="white" stroke="white" stroke-miterlimit="10" stroke-linejoin="round"/>
<path d="M5.93845 18.0081L8.73601 20.7156" stroke="white" stroke-miterlimit="10" stroke-linejoin="round"/>
<path d="M8.0983 15.2357C8.0983 14.8899 8.43303 14.6098 8.84597 14.6098C9.259 14.6098 9.59374 14.8899 9.59374 15.2357C9.59374 15.5812 9.259 15.8615 8.84597 15.8615C8.43303 15.8615 8.0983 15.5812 8.0983 15.2357Z" fill="white" stroke="white" stroke-miterlimit="10" stroke-linejoin="round"/>
<path d="M11.6641 15.5486C11.6641 15.2105 11.9604 14.9362 12.3256 14.9362C12.6909 14.9362 12.9871 15.2105 12.9871 15.5486C12.9871 15.8868 12.6909 16.1608 12.3256 16.1608C11.9604 16.1608 11.6641 15.8868 11.6641 15.5486Z" fill="white" stroke="white" stroke-miterlimit="10" stroke-linejoin="round"/>
<path d="M8.84592 20.4331L8.75977 15.916" stroke="white" stroke-miterlimit="10" stroke-linejoin="round"/>
<path d="M7.48798 25.3519L9.23876 21.6096" stroke="white" stroke-miterlimit="10" stroke-linejoin="round"/>
<path d="M5.93716 26.1685C5.93716 25.627 6.42611 25.1881 7.02926 25.1881C7.63245 25.1881 8.1214 25.627 8.1214 26.1685C8.1214 26.7101 7.63245 27.1489 7.02926 27.1489C6.42611 27.1489 5.93716 26.7101 5.93716 26.1685Z" fill="white" stroke="white" stroke-miterlimit="10" stroke-linejoin="round"/>
<path d="M11.6923 18.5115L12.155 15.9574" stroke="white" stroke-miterlimit="10" stroke-linejoin="round"/>
<path d="M10.6127 19.1864C10.6127 18.733 11.0183 18.3654 11.5188 18.3654C12.0192 18.3654 12.4249 18.733 12.4249 19.1864C12.4249 19.6398 12.0192 20.0073 11.5188 20.0073C11.0183 20.0073 10.6127 19.6398 10.6127 19.1864Z" fill="white" stroke="white" stroke-miterlimit="10" stroke-linejoin="round"/>
<path d="M9.95712 20.7005L11.3451 19.168" stroke="white" stroke-miterlimit="10" stroke-linejoin="round"/>
<path d="M9.34995 15.3224L11.7653 15.5576" stroke="white" stroke-miterlimit="10" stroke-linejoin="round"/>
<path d="M2.28387 24.7904L8.50251 21.9234" stroke="white" stroke-miterlimit="10" stroke-linejoin="round"/>
<path d="M28.1343 20.7667L31.4483 21.9749" stroke="white" stroke-miterlimit="10" stroke-linejoin="round"/>
<path d="M16.5275 1.54753C16.5275 1.21384 16.8437 0.943298 17.2335 0.943298C17.6234 0.943298 17.9394 1.21384 17.9394 1.54753C17.9394 1.88122 17.6234 2.15163 17.2335 2.15163C16.8437 2.15163 16.5275 1.88122 16.5275 1.54753Z" fill="white"/>
<path d="M18.0514 3.73548L17.5171 1.21133" stroke="white" stroke-miterlimit="10" stroke-linejoin="round"/>
</g>
<defs>
<clipPath id="clip0_44_3683">
<rect width="37" height="29" fill="white"/>
</clipPath>
</defs>
</svg>
