<svg width="47" height="36" viewBox="0 0 47 36" fill="none" xmlns="http://www.w3.org/2000/svg">
  <g clip-path="url(#clip0_317_981)">
    <path d="M16.9297 33.7749L20.6497 33.674" stroke="currentColor" stroke-miterlimit="10" stroke-linejoin="round" />
    <path d="M25.1003 32.7389L26.6534 24.5499" stroke="currentColor" stroke-miterlimit="10" stroke-linejoin="round" />
    <path d="M30.084 19.6014L28.4319 15.9512" stroke="currentColor" stroke-miterlimit="10" stroke-linejoin="round" />
    <path d="M28.4104 26.7122L27.0195 24.7989" stroke="currentColor" stroke-miterlimit="10" stroke-linejoin="round" />
    <path d="M28.1337 30.9047L26.6199 24.7447" stroke="currentColor" stroke-miterlimit="10" stroke-linejoin="round" />
    <path d="M28.2664 12.1473L26.1753 11.5827" stroke="currentColor" stroke-miterlimit="10" stroke-linejoin="round" />
    <path d="M27.4313 15.4126L23.1506 14.996L25.043 11.7459" stroke="currentColor" stroke-miterlimit="10"
      stroke-linejoin="round" />
    <path
      d="M20.0415 33.6359C20.0415 33.1395 20.4971 32.7371 21.0591 32.7371C21.6212 32.7371 22.077 33.1395 22.077 33.6359C22.077 34.1322 21.6212 34.5346 21.0591 34.5346C20.4971 34.5346 20.0415 34.1322 20.0415 33.6359Z"
      fill="currentColor" />
    <path d="M28.017 15.9126L26.7553 23.8293L21.123 33.8294" stroke="currentColor" stroke-miterlimit="10"
      stroke-linejoin="round" />
    <path
      d="M22.3848 14.9542C22.3848 14.4021 22.8689 13.9542 23.4662 13.9542C24.0635 13.9542 24.5476 14.4021 24.5476 14.9542C24.5476 15.5065 24.0635 15.9542 23.4662 15.9542C22.8689 15.9542 22.3848 15.5065 22.3848 14.9542Z"
      fill="currentColor" />
    <path
      d="M24.2319 11.2251C24.2319 10.6382 24.7362 10.1627 25.3583 10.1627C25.9804 10.1627 26.485 10.6382 26.485 11.2251C26.485 11.812 25.9804 12.2877 25.3583 12.2877C24.7362 12.2877 24.2319 11.812 24.2319 11.2251Z"
      fill="currentColor" />
    <path d="M28.636 12.4699L30.764 9.43665" stroke="currentColor" stroke-miterlimit="10" stroke-linejoin="round" />
    <path d="M38.7236 32.5737L40.3917 34.8547" stroke="currentColor" stroke-miterlimit="10" stroke-linejoin="round" />
    <path d="M30.9736 34.8959L33.7507 31.116" stroke="currentColor" stroke-miterlimit="10" stroke-linejoin="round" />
    <path d="M34.2319 31.395L38.3404 31.9377" stroke="currentColor" stroke-miterlimit="10" stroke-linejoin="round" />
    <path d="M38.3728 32.0885L39.9053 27.5052" stroke="currentColor" stroke-miterlimit="10" stroke-linejoin="round" />
    <path d="M19.4062 29.3028L25.5001 24.5355" stroke="currentColor" stroke-miterlimit="10" stroke-linejoin="round" />
    <path d="M22.6541 20.6115L27.2842 16.3545" stroke="currentColor" stroke-miterlimit="10" stroke-linejoin="round" />
    <path
      d="M14.7549 33.7135C14.7549 33.2069 15.2432 32.7961 15.8453 32.7961C16.4478 32.7961 16.936 33.2069 16.936 33.7135C16.936 34.2202 16.4478 34.631 15.8453 34.631C15.2432 34.631 14.7549 34.2202 14.7549 33.7135Z"
      fill="currentColor" stroke="currentColor" stroke-miterlimit="10" stroke-linejoin="round" />
    <path d="M19.3805 29.369L16.0156 33.5383" stroke="currentColor" stroke-miterlimit="10" stroke-linejoin="round" />
    <path d="M29.0381 26.6908L31.6657 24.1597L30.4978 20.0424" stroke="currentColor" stroke-miterlimit="10"
      stroke-linejoin="round" />
    <path d="M29.2888 31.108L33.4954 31.1481L35.8343 25.999L33.9216 22.5675L30.6045 19.7446" stroke="currentColor"
      stroke-miterlimit="10" stroke-linejoin="round" />
    <path d="M25.6904 32.5917L28.2121 30.6597L28.5965 27.2618L30.2775 19.7108L30.95 14.714L28.7644 12.2266"
      stroke="currentColor" stroke-miterlimit="10" stroke-linejoin="round" />
    <path
      d="M33.0024 31.2567C33.0024 30.7691 33.4557 30.374 34.0145 30.374C34.5735 30.374 35.0265 30.7691 35.0265 31.2567C35.0265 31.7442 34.5735 32.1393 34.0145 32.1393C33.4557 32.1393 33.0024 31.7442 33.0024 31.2567Z"
      fill="currentColor" stroke="currentColor" stroke-miterlimit="10" stroke-linejoin="round" />
    <path
      d="M34.4517 25.6202C34.4517 25.1796 34.8585 24.8224 35.3602 24.8224C35.862 24.8224 36.2688 25.1796 36.2688 25.6202C36.2688 26.0606 35.862 26.4177 35.3602 26.4177C34.8585 26.4177 34.4517 26.0606 34.4517 25.6202Z"
      fill="currentColor" stroke="currentColor" stroke-miterlimit="10" stroke-linejoin="round" />
    <path
      d="M27.449 30.7253C27.449 30.2332 27.9164 29.8343 28.4928 29.8343C29.0695 29.8343 29.5366 30.2332 29.5366 30.7253C29.5366 31.2174 29.0695 31.6163 28.4928 31.6163C27.9164 31.6163 27.449 31.2174 27.449 30.7253Z"
      fill="currentColor" stroke="currentColor" stroke-miterlimit="10" stroke-linejoin="round" />
    <path d="M19.7495 12.6479L21.3993 10.1945" stroke="currentColor" stroke-miterlimit="10" stroke-linejoin="round" />
    <path d="M20.2548 24.3195L19.3982 28.5718" stroke="currentColor" stroke-miterlimit="10" stroke-linejoin="round" />
    <path
      d="M19.5388 23.4995C19.5388 23.0984 19.9004 22.7732 20.3468 22.7732C20.793 22.7732 21.1547 23.0984 21.1547 23.4995C21.1547 23.9003 20.793 24.2256 20.3468 24.2256C19.9004 24.2256 19.5388 23.9003 19.5388 23.4995Z"
      fill="currentColor" stroke="currentColor" stroke-miterlimit="10" stroke-linejoin="round" />
    <path d="M18.873 20.901L21.0943 20.749" stroke="currentColor" stroke-miterlimit="10" stroke-linejoin="round" />
    <path
      d="M20.9573 20.8249C20.9573 20.2367 21.4792 19.7599 22.1229 19.7599C22.7666 19.7599 23.2885 20.2367 23.2885 20.8249C23.2885 21.4132 22.7666 21.8901 22.1229 21.8901C21.4792 21.8901 20.9573 21.4132 20.9573 20.8249Z"
      fill="currentColor" stroke="currentColor" stroke-miterlimit="10" stroke-linejoin="round" />
    <path d="M15.9121 18.7455L18.9659 13.7453" stroke="currentColor" stroke-miterlimit="10" stroke-linejoin="round" />
    <path d="M17.998 8.65649L21.0567 9.32081" stroke="currentColor" stroke-miterlimit="10" stroke-linejoin="round" />
    <path d="M17.7312 7.92696L19.5605 5.86218" stroke="currentColor" stroke-miterlimit="10" stroke-linejoin="round" />
    <path
      d="M16.5659 8.52052C16.5659 8.1402 16.9424 7.83176 17.407 7.83176C17.8716 7.83176 18.2481 8.1402 18.2481 8.52052C18.2481 8.90078 17.8716 9.20905 17.407 9.20905C16.9424 9.20905 16.5659 8.90078 16.5659 8.52052Z"
      fill="currentColor" stroke="currentColor" stroke-miterlimit="10" stroke-linejoin="round" />
    <path d="M17.6689 10.3311L17.2275 9.1069" stroke="currentColor" stroke-miterlimit="10" stroke-linejoin="round" />
    <path
      d="M14.6943 14.1269C14.6943 13.697 15.1151 13.3484 15.634 13.3484C16.1529 13.3484 16.5737 13.697 16.5737 14.1269C16.5737 14.5565 16.1529 14.905 15.634 14.905C15.1151 14.905 14.6943 14.5565 14.6943 14.1269Z"
      fill="currentColor" stroke="currentColor" stroke-miterlimit="10" stroke-linejoin="round" />
    <path d="M9.51172 31.4714L11.7357 26.8257" stroke="currentColor" stroke-miterlimit="10" stroke-linejoin="round" />
    <path
      d="M7.54175 32.4851C7.54175 31.8129 8.16284 31.268 8.929 31.268C9.69522 31.268 10.3163 31.8129 10.3163 32.4851C10.3163 33.1573 9.69522 33.7022 8.929 33.7022C8.16284 33.7022 7.54175 33.1573 7.54175 32.4851Z"
      fill="currentColor" stroke="currentColor" stroke-miterlimit="10" stroke-linejoin="round" />
    <path d="M14.8523 22.9797L15.4401 19.8092" stroke="currentColor" stroke-miterlimit="10" stroke-linejoin="round" />
    <path
      d="M13.481 23.8176C13.481 23.2547 13.9962 22.7985 14.6319 22.7985C15.2675 22.7985 15.783 23.2547 15.783 23.8176C15.783 24.3804 15.2675 24.8366 14.6319 24.8366C13.9962 24.8366 13.481 24.3804 13.481 23.8176Z"
      fill="currentColor" stroke="currentColor" stroke-miterlimit="10" stroke-linejoin="round" />
    <path d="M12.6482 25.6972L14.4113 23.7948" stroke="currentColor" stroke-miterlimit="10" stroke-linejoin="round" />
    <path d="M11.877 19.0209L14.9451 19.3129" stroke="currentColor" stroke-miterlimit="10" stroke-linejoin="round" />
    <path d="M3.35718 30.3946L10.8004 27.2152" stroke="currentColor" stroke-miterlimit="10" stroke-linejoin="round" />
    <path d="M15.3992 18.7942L15.5464 13.9201L17.6664 11.4218" stroke="currentColor" stroke-miterlimit="10"
      stroke-linejoin="round" />
    <path
      d="M17.3218 10.8969C17.3218 10.4834 17.6855 10.1479 18.1344 10.1479C18.583 10.1479 18.9467 10.4834 18.9467 10.8969C18.9467 11.3107 18.583 11.646 18.1344 11.646C17.6855 11.646 17.3218 11.3107 17.3218 10.8969Z"
      fill="currentColor" stroke="currentColor" stroke-miterlimit="10" stroke-linejoin="round" />
    <path
      d="M19.4128 5.42953C19.4128 5.21203 19.6335 5.03592 19.9053 5.03592C20.1771 5.03592 20.3975 5.21203 20.3975 5.42953C20.3975 5.64682 20.1771 5.82294 19.9053 5.82294C19.6335 5.82294 19.4128 5.64682 19.4128 5.42953Z"
      fill="currentColor" stroke="currentColor" stroke-miterlimit="10" stroke-linejoin="round" />
    <path
      d="M20.646 9.74787C20.646 9.38618 21.0181 9.09296 21.4774 9.09296C21.9364 9.09296 22.3088 9.38618 22.3088 9.74787C22.3088 10.1097 21.9364 10.4027 21.4774 10.4027C21.0181 10.4027 20.646 10.1097 20.646 9.74787Z"
      fill="currentColor" stroke="currentColor" stroke-miterlimit="10" stroke-linejoin="round" />
    <path d="M18.8604 10.9154L21.3442 9.94733" stroke="currentColor" stroke-miterlimit="10" stroke-linejoin="round" />
    <path
      d="M18.2554 13.2907C18.2554 12.7802 18.7604 12.3667 19.3834 12.3667C20.0063 12.3667 20.5113 12.7802 20.5113 13.2907C20.5113 13.8011 20.0063 14.2146 19.3834 14.2146C18.7604 14.2146 18.2554 13.8011 18.2554 13.2907Z"
      fill="currentColor" stroke="currentColor" stroke-miterlimit="10" stroke-linejoin="round" />
    <path d="M19.7233 13.9776L18.2148 20.0387" stroke="currentColor" stroke-miterlimit="10" stroke-linejoin="round" />
    <path
      d="M17.4744 20.7107C17.4744 20.3678 17.8059 20.0896 18.2148 20.0896C18.6238 20.0896 18.9552 20.3678 18.9552 20.7107C18.9552 21.054 18.6238 21.3321 18.2148 21.3321C17.8059 21.3321 17.4744 21.054 17.4744 20.7107Z"
      fill="currentColor" stroke="currentColor" stroke-miterlimit="10" stroke-linejoin="round" />
    <path d="M18.5771 21.3195L19.8986 23.0503" stroke="currentColor" stroke-miterlimit="10" stroke-linejoin="round" />
    <path
      d="M18.2271 29.3375C18.2271 28.8999 18.6555 28.5454 19.1839 28.5454C19.7123 28.5454 20.1408 28.8999 20.1408 29.3375C20.1408 29.7751 19.7123 30.1299 19.1839 30.1299C18.6555 30.1299 18.2271 29.7751 18.2271 29.3375Z"
      fill="currentColor" stroke="currentColor" stroke-miterlimit="10" stroke-linejoin="round" />
    <path
      d="M32.6846 21.9338C32.6846 21.4418 33.1879 21.0428 33.8086 21.0428C34.4296 21.0428 34.933 21.4418 34.933 21.9338C34.933 22.4259 34.4296 22.8249 33.8086 22.8249C33.1879 22.8249 32.6846 22.4259 32.6846 21.9338Z"
      fill="currentColor" stroke="currentColor" stroke-miterlimit="10" stroke-linejoin="round" />
    <path
      d="M29.6809 19.5827C29.6809 19.2774 29.9483 19.0301 30.2784 19.0301C30.6085 19.0301 30.876 19.2774 30.876 19.5827C30.876 19.8877 30.6085 20.1352 30.2784 20.1352C29.9483 20.1352 29.6809 19.8877 29.6809 19.5827Z"
      fill="currentColor" stroke="currentColor" stroke-miterlimit="10" stroke-linejoin="round" />
    <path
      d="M30.3137 14.7721C30.3137 14.4909 30.5549 14.2628 30.8525 14.2628C31.1501 14.2628 31.3916 14.4909 31.3916 14.7721C31.3916 15.0533 31.1501 15.2813 30.8525 15.2813C30.5549 15.2813 30.3137 15.0533 30.3137 14.7721Z"
      fill="currentColor" stroke="currentColor" stroke-miterlimit="10" stroke-linejoin="round" />
    <path
      d="M37.2029 32.1726C37.2029 31.6758 37.649 31.2731 38.1989 31.2731C38.7489 31.2731 39.1948 31.6758 39.1948 32.1726C39.1948 32.6691 38.7489 33.0717 38.1989 33.0717C37.649 33.0717 37.2029 32.6691 37.2029 32.1726Z"
      fill="currentColor" stroke="currentColor" stroke-miterlimit="10" stroke-linejoin="round" />
    <path
      d="M39.3118 27.1777C39.3118 26.8665 39.6108 26.6142 39.9796 26.6142C40.3487 26.6142 40.6477 26.8665 40.6477 27.1777C40.6477 27.489 40.3487 27.7412 39.9796 27.7412C39.6108 27.7412 39.3118 27.489 39.3118 27.1777Z"
      fill="currentColor" stroke="currentColor" stroke-miterlimit="10" stroke-linejoin="round" />
    <path
      d="M28.1343 26.8201C28.1343 26.5747 28.3701 26.3759 28.6615 26.3759C28.9526 26.3759 29.1888 26.5747 29.1888 26.8201C29.1888 27.0655 28.9526 27.2644 28.6615 27.2644C28.3701 27.2644 28.1343 27.0655 28.1343 26.8201Z"
      fill="currentColor" stroke="currentColor" stroke-miterlimit="10" stroke-linejoin="round" />
    <path
      d="M24.0569 33.1584C24.0569 32.7515 24.4345 32.4216 24.9006 32.4216C25.3663 32.4216 25.744 32.7515 25.744 33.1584C25.744 33.5653 25.3663 33.8952 24.9006 33.8952C24.4345 33.8952 24.0569 33.5653 24.0569 33.1584Z"
      fill="currentColor" stroke="currentColor" stroke-miterlimit="10" stroke-linejoin="round" />
    <path
      d="M27.8826 12.4238C27.8826 12.0707 28.2133 11.7848 28.6213 11.7848C29.0291 11.7848 29.3599 12.0707 29.3599 12.4238C29.3599 12.7766 29.0291 13.0627 28.6213 13.0627C28.2133 13.0627 27.8826 12.7766 27.8826 12.4238Z"
      fill="currentColor" stroke="currentColor" stroke-miterlimit="10" stroke-linejoin="round" />
    <path
      d="M30.937 24.0842C30.937 23.7148 31.285 23.4152 31.7141 23.4152C32.1432 23.4152 32.4912 23.7148 32.4912 24.0842C32.4912 24.4538 32.1432 24.7532 31.7141 24.7532C31.285 24.7532 30.937 24.4538 30.937 24.0842Z"
      fill="currentColor" stroke="currentColor" stroke-miterlimit="10" stroke-linejoin="round" />
    <path d="M25.5879 33.4845L27.9606 35.0304" stroke="currentColor" stroke-miterlimit="10" stroke-linejoin="round" />
    <path d="M20.3469 5.11614L21.9732 2.09534" stroke="currentColor" stroke-miterlimit="10" stroke-linejoin="round" />
    <path
      d="M26.9355 15.6627C26.9355 15.0874 27.4097 14.6209 27.9944 14.6209C28.5792 14.6209 29.0533 15.0874 29.0533 15.6627C29.0533 16.238 28.5792 16.7043 27.9944 16.7043C27.4097 16.7043 26.9355 16.238 26.9355 15.6627Z"
      fill="currentColor" />
    <path
      d="M22.1846 5.13954C22.1846 4.66013 22.6355 4.27145 23.1918 4.27145C23.7482 4.27145 24.1991 4.66013 24.1991 5.13954C24.1991 5.61895 23.7482 6.00759 23.1918 6.00759C22.6355 6.00759 22.1846 5.61895 22.1846 5.13954Z"
      fill="currentColor" />
    <path
      d="M25.0881 24.2251C25.0881 23.5003 25.7337 22.9126 26.53 22.9126C27.3263 22.9126 27.9718 23.5003 27.9718 24.2251C27.9718 24.9499 27.3263 25.5376 26.53 25.5376C25.7337 25.5376 25.0881 24.9499 25.0881 24.2251Z"
      fill="currentColor" />
    <path
      d="M24.5808 6.68948C24.5808 6.19466 25.0348 5.79352 25.5947 5.79352C26.1547 5.79352 26.6084 6.19466 26.6084 6.68948C26.6084 7.18413 26.1547 7.58524 25.5947 7.58524C25.0348 7.58524 24.5808 7.18413 24.5808 6.68948Z"
      fill="currentColor" />
    <path d="M23.4683 5.5029L25.8429 6.35082L25.1542 10.5792" stroke="currentColor" stroke-miterlimit="10"
      stroke-linejoin="round" />
    <path d="M34.1704 21.3461L35.6779 18.1481" stroke="currentColor" stroke-miterlimit="10" stroke-linejoin="round" />
    <path d="M39.3137 21.8382L33.9043 22.0021" stroke="currentColor" stroke-miterlimit="10" stroke-linejoin="round" />
    <path
      d="M0.635742 34.7249L3.71908 29.2362L6.18544 26.4143L6.66792 23.9027L8.23372 21.0799C8.23372 21.0799 9.13176 17.5376 10.574 15.2665C12.0162 12.9956 13.623 11.2937 13.623 11.2937L15.3402 8.47823L17.6048 4.94717L20.3667 1.92027L21.945 0.709503L23.9178 2.32385L25.6934 4.14L26.7702 5.39563L29.4589 7.37013L31.7523 11.0996L32.8594 14.1711L35.1923 17.3521L37.8811 19.3997L40.0558 23.1659L41.9934 25.8716L43.2585 29.2721L46.4082 34.2073H43.2585L39.7006 34.6109L35.5576 34.2073L32.1339 34.9107L25.8338 35.0964L20.6536 35.0833L13.1268 35.3347L8.65904 34.407L5.32152 34.1846L0.635742 34.7249Z"
      stroke="currentColor" stroke-miterlimit="10" stroke-linejoin="round" />
    <path d="M38.6929 32.3343L45.8758 33.3184" stroke="currentColor" stroke-miterlimit="10" stroke-linejoin="round" />
    <path d="M12.9576 27.17L18.897 29.0839L9.98779 31.7469" stroke="currentColor" stroke-miterlimit="10"
      stroke-linejoin="round" />
    <path d="M1.16064 34.2581L11.0248 27.2903" stroke="currentColor" stroke-miterlimit="10" stroke-linejoin="round" />
    <path
      d="M10.488 26.5057C10.488 25.8556 11.096 25.3283 11.8459 25.3283C12.5958 25.3283 13.2038 25.8556 13.2038 26.5057C13.2038 27.156 12.5958 27.6833 11.8459 27.6833C11.096 27.6833 10.488 27.156 10.488 26.5057Z"
      fill="currentColor" stroke="currentColor" stroke-miterlimit="10" stroke-linejoin="round" />
    <path d="M7.54346 22.3548L11.0971 25.7159" stroke="currentColor" stroke-miterlimit="10" stroke-linejoin="round" />
    <path
      d="M10.2871 18.9133C10.2871 18.484 10.7123 18.1363 11.2369 18.1363C11.7615 18.1363 12.1867 18.484 12.1867 18.9133C12.1867 19.3422 11.7615 19.6902 11.2369 19.6902C10.7123 19.6902 10.2871 19.3422 10.2871 18.9133Z"
      fill="currentColor" stroke="currentColor" stroke-miterlimit="10" stroke-linejoin="round" />
    <path
      d="M14.8167 19.3017C14.8167 18.8819 15.1929 18.5415 15.6568 18.5415C16.121 18.5415 16.4972 18.8819 16.4972 19.3017C16.4972 19.7215 16.121 20.0616 15.6568 20.0616C15.1929 20.0616 14.8167 19.7215 14.8167 19.3017Z"
      fill="currentColor" stroke="currentColor" stroke-miterlimit="10" stroke-linejoin="round" />
    <path d="M11.2366 25.3652L11.1272 19.7577" stroke="currentColor" stroke-miterlimit="10" stroke-linejoin="round" />
    <path d="M9.51172 31.4714L11.7357 26.8257" stroke="currentColor" stroke-miterlimit="10" stroke-linejoin="round" />
    <path
      d="M7.54175 32.4851C7.54175 31.8129 8.16284 31.268 8.929 31.268C9.69522 31.268 10.3163 31.8129 10.3163 32.4851C10.3163 33.1573 9.69522 33.7022 8.929 33.7022C8.16284 33.7022 7.54175 33.1573 7.54175 32.4851Z"
      fill="currentColor" stroke="currentColor" stroke-miterlimit="10" stroke-linejoin="round" />
    <path d="M14.8523 22.9797L15.4401 19.8092" stroke="currentColor" stroke-miterlimit="10" stroke-linejoin="round" />
    <path
      d="M13.481 23.8176C13.481 23.2547 13.9962 22.7985 14.6319 22.7985C15.2675 22.7985 15.783 23.2547 15.783 23.8176C15.783 24.3804 15.2675 24.8366 14.6319 24.8366C13.9962 24.8366 13.481 24.3804 13.481 23.8176Z"
      fill="currentColor" stroke="currentColor" stroke-miterlimit="10" stroke-linejoin="round" />
    <path d="M12.6482 25.6972L14.4113 23.7948" stroke="currentColor" stroke-miterlimit="10" stroke-linejoin="round" />
    <path d="M11.877 19.0209L14.9451 19.3129" stroke="currentColor" stroke-miterlimit="10" stroke-linejoin="round" />
    <path d="M2.90112 30.7742L10.8005 27.2152" stroke="currentColor" stroke-miterlimit="10" stroke-linejoin="round" />
    <path d="M35.7383 25.7794L39.948 27.2792" stroke="currentColor" stroke-miterlimit="10" stroke-linejoin="round" />
    <path
      d="M20.9944 1.92107C20.9944 1.50684 21.396 1.17099 21.8912 1.17099C22.3865 1.17099 22.7879 1.50684 22.7879 1.92107C22.7879 2.33531 22.3865 2.67099 21.8912 2.67099C21.396 2.67099 20.9944 2.33531 20.9944 1.92107Z"
      fill="currentColor" />
    <path d="M22.9302 4.63718L22.2515 1.50375" stroke="currentColor" stroke-miterlimit="10" stroke-linejoin="round" />
  </g>
  <defs>
    <clipPath id="clip0_317_981">
      <rect width="47" height="36" fill="currentColor" />
    </clipPath>
  </defs>
</svg>