<svg width="18" height="21" viewBox="0 0 18 21" fill="none" xmlns="http://www.w3.org/2000/svg">
  <path
    d="M12.6 13.7953C13.1567 13.7953 13.608 13.2938 13.608 12.6753C13.608 12.0567 13.1567 11.5553 12.6 11.5553C12.0433 11.5553 11.592 12.0567 11.592 12.6753C11.592 13.2938 12.0433 13.7953 12.6 13.7953Z"
    fill="currentColor" fill-opacity="0.8" />
  <path fill-rule="evenodd" clip-rule="evenodd"
    d="M12.6 14.6753C11.943 14.6753 10.629 15.0353 10.584 15.7553C11.034 16.4653 11.772 16.9253 12.6 16.9253C13.428 16.9253 14.166 16.4653 14.616 15.7553C14.571 15.0353 13.257 14.6753 12.6 14.6753Z"
    fill="currentColor" fill-opacity="0.8" />
  <path fill-rule="evenodd" clip-rule="evenodd"
    d="M13.5 8.26526V3.44526L6.75 0.175262L0 3.44526V8.35526C0 12.8953 2.88 17.1453 6.75 18.1753C7.245 18.0453 7.722 17.8553 8.19 17.6253C8.68602 18.4134 9.34597 19.0568 10.1138 19.5007C10.8816 19.9447 11.7345 20.1761 12.6 20.1753C15.579 20.1753 18 17.4853 18 14.1753C18 11.2053 16.056 8.74526 13.5 8.26526ZM7.2 14.1753C7.2 14.7353 7.272 15.2853 7.407 15.7953C7.191 15.9053 6.975 16.0153 6.75 16.0953C3.897 15.0953 1.8 11.8553 1.8 8.35526V4.75526L6.75 2.35526L11.7 4.75526V8.26526C9.144 8.74526 7.2 11.2053 7.2 14.1753ZM12.6 18.1753C10.611 18.1753 9 16.3853 9 14.1753C9 11.9653 10.611 10.1753 12.6 10.1753C14.589 10.1753 16.2 11.9653 16.2 14.1753C16.2 16.3853 14.589 18.1753 12.6 18.1753Z"
    fill="currentColor" fill-opacity="0.8" />
</svg>