<svg width="18" height="16" viewBox="0 0 18 16" fill="none" xmlns="http://www.w3.org/2000/svg">
  <path
    d="M1.8 15.2C1.305 15.2 0.881101 15.0236 0.528301 14.6708C0.175501 14.318 -0.000598472 13.8944 1.52801e-06 13.4V2.6C1.52801e-06 2.105 0.176402 1.6811 0.529201 1.3283C0.882001 0.975504 1.3056 0.799405 1.8 0.800005H16.2C16.695 0.800005 17.1189 0.976404 17.4717 1.3292C17.8245 1.682 18.0006 2.1056 18 2.6V13.4C18 13.895 17.8236 14.3189 17.4708 14.6717C17.118 15.0245 16.6944 15.2006 16.2 15.2H1.8ZM9 8.9L1.8 4.4V13.4H16.2V4.4L9 8.9ZM9 7.1L16.2 2.6H1.8L9 7.1ZM1.8 4.4V2.6V13.4V4.4Z"
    fill="currentColor" />
</svg>