<svg width="18" height="26" viewBox="0 0 18 26" fill="none" xmlns="http://www.w3.org/2000/svg">
  <path
    d="M4.50452 19.7806H13.4957V21.5788H4.50452V19.7806ZM6.30275 23.377H11.6974V25.1753H6.30275V23.377ZM9.0001 0C6.61549 0 4.32855 0.947281 2.64238 2.63345C0.956213 4.31962 0.00893168 6.60656 0.00893168 8.99117C-0.0518717 10.2979 0.198442 11.6004 0.73928 12.7915C1.28012 13.9826 2.09602 15.0282 3.11988 15.8424C4.01899 16.6786 4.50452 17.1551 4.50452 17.9823H6.30275C6.30275 16.328 5.30473 15.4019 4.33368 14.5117C3.49333 13.8682 2.82359 13.0285 2.38312 12.066C1.94265 11.1036 1.74489 10.0478 1.80717 8.99117C1.80717 7.08348 2.56499 5.25393 3.91393 3.90499C5.26286 2.55606 7.09241 1.79823 9.0001 1.79823C10.9078 1.79823 12.7373 2.55606 14.0863 3.90499C15.4352 5.25393 16.193 7.08348 16.193 8.99117C16.2543 10.0486 16.0551 11.1048 15.6131 12.0673C15.171 13.0298 14.4995 13.8692 13.6575 14.5117C12.6955 15.4109 11.6974 16.31 11.6974 17.9823H13.4957C13.4957 17.1551 13.9722 16.6786 14.8803 15.8334C15.9035 15.0206 16.719 13.9765 17.2598 12.787C17.8007 11.5974 18.0514 10.2965 17.9913 8.99117C17.9913 7.81043 17.7587 6.64125 17.3069 5.5504C16.855 4.45954 16.1927 3.46836 15.3578 2.63345C14.5229 1.79854 13.5317 1.13626 12.4409 0.684412C11.35 0.232563 10.1808 0 9.0001 0Z"
    fill="currentColor" />
</svg>