<svg width="14" height="14" viewBox="0 0 14 14" fill="none" xmlns="http://www.w3.org/2000/svg">
  <path id="Vector"
    d="M10.3435 0.50013C10.5588 0.284942 10.8508 0.164062 11.1552 0.164062C11.4596 0.164062 11.7516 0.284942 11.9669 0.50013L13.6639 2.19712C13.8791 2.41246 14 2.70443 14 3.00886C14 3.31329 13.8791 3.60526 13.6639 3.82061L11.8311 5.65343L11.8232 5.66196L4.71768 12.444C4.58782 12.568 4.43073 12.66 4.25898 12.7124L0.634676 13.8148C0.549462 13.8407 0.458827 13.8428 0.372476 13.8211C0.286126 13.7994 0.207313 13.7546 0.144479 13.6915C0.0813874 13.6286 0.0365758 13.5498 0.0148437 13.4635C-0.00688845 13.3771 -0.00472239 13.2865 0.0211098 13.2013L1.11897 9.59206C1.17655 9.40315 1.28187 9.23228 1.42477 9.09596L8.51457 2.32836L10.3435 0.50013ZM2.10461 9.80796C2.08432 9.82758 2.06921 9.85194 2.06064 9.87883L1.23118 12.6048L3.97221 11.7707C3.99679 11.7631 4.01926 11.7498 4.03784 11.732L10.7792 5.2971L8.8499 3.36847L2.10461 9.80796ZM11.4833 4.61004L12.9683 3.12567C12.9836 3.11043 12.9957 3.09233 13.004 3.07239C13.0123 3.05246 13.0165 3.0311 13.0165 3.00952C13.0165 2.98794 13.0123 2.96657 13.004 2.94664C12.9957 2.92671 12.9836 2.90861 12.9683 2.89337L11.2714 1.19638C11.2561 1.1811 11.238 1.16898 11.2181 1.16071C11.1981 1.15244 11.1768 1.14818 11.1552 1.14818C11.1336 1.14818 11.1123 1.15244 11.0923 1.16071C11.0724 1.16898 11.0543 1.1811 11.0391 1.19638L9.55468 2.68075L11.4833 4.61004Z"
    fill="currentColor" />
</svg>