<svg width="20" height="21" viewBox="0 0 20 21" fill="none" xmlns="http://www.w3.org/2000/svg">
  <path
    d="M1 17.25C1 16.0565 1.47411 14.9119 2.31802 14.068C3.16193 13.2241 4.30653 12.75 5.5 12.75H14.5C15.6935 12.75 16.8381 13.2241 17.682 14.068C18.5259 14.9119 19 16.0565 19 17.25C19 17.8467 18.7629 18.419 18.341 18.841C17.919 19.2629 17.3467 19.5 16.75 19.5H3.25C2.65326 19.5 2.08097 19.2629 1.65901 18.841C1.23705 18.419 1 17.8467 1 17.25Z"
    stroke="currentColor" stroke-width="2" stroke-linejoin="round" />
  <path
    d="M10 8.25C11.864 8.25 13.375 6.73896 13.375 4.875C13.375 3.01104 11.864 1.5 10 1.5C8.13604 1.5 6.625 3.01104 6.625 4.875C6.625 6.73896 8.13604 8.25 10 8.25Z"
    stroke="currentColor" stroke-width="2" />
</svg>