<svg width="36" height="36" viewBox="0 0 36 36" fill="none" xmlns="http://www.w3.org/2000/svg">
  <path
    d="M18 9C19.1935 9 20.3381 9.47411 21.182 10.318C22.0259 11.1619 22.5 12.3065 22.5 13.5C22.5 14.6935 22.0259 15.8381 21.182 16.682C20.3381 17.5259 19.1935 18 18 18C16.8065 18 15.6619 17.5259 14.818 16.682C13.9741 15.8381 13.5 14.6935 13.5 13.5C13.5 12.3065 13.9741 11.1619 14.818 10.318C15.6619 9.47411 16.8065 9 18 9ZM18 20.25C22.9725 20.25 27 22.2638 27 24.75V27H9V24.75C9 22.2638 13.0275 20.25 18 20.25Z"
    fill="currentColor" />
  <rect x="0.5" y="0.5" width="35" height="35" rx="13.5" stroke="currentColor" />
</svg>