<svg width="18" height="18" viewBox="0 0 13 13" fill="none" xmlns="http://www.w3.org/2000/svg">
  <path
    d="M6.50006 0C7.36201 0 8.18867 0.34241 8.79816 0.951903C9.40765 1.5614 9.75006 2.38805 9.75006 3.25C9.75006 4.11195 9.40765 4.9386 8.79816 5.5481C8.18867 6.15759 7.36201 6.5 6.50006 6.5C5.63811 6.5 4.81146 6.15759 4.20196 5.5481C3.59247 4.9386 3.25006 4.11195 3.25006 3.25C3.25006 2.38805 3.59247 1.5614 4.20196 0.951903C4.81146 0.34241 5.63811 0 6.50006 0ZM6.50006 8.125C10.0913 8.125 13.0001 9.57937 13.0001 11.375V13H6.10352e-05V11.375C6.10352e-05 9.57937 2.90881 8.125 6.50006 8.125Z"
    fill="white" />
</svg>