<svg width="11" height="10" viewBox="0 0 11 10" xmlns="http://www.w3.org/2000/svg">
  <path id="Vector"
    d="M0.709802 0.209802C0.776139 0.143298 0.854944 0.0905335 0.941704 0.0545322C1.02846 0.0185308 1.12147 0 1.21541 0C1.30934 0 1.40235 0.0185308 1.48911 0.0545322C1.57587 0.0905335 1.65467 0.143298 1.72101 0.209802L5.50019 3.99041L9.27936 0.209802C9.34576 0.143405 9.42459 0.0907363 9.51134 0.0548025C9.59809 0.0188688 9.69107 0.000373895 9.78497 0.000373895C9.87887 0.000373895 9.97185 0.0188688 10.0586 0.0548025C10.1454 0.0907363 10.2242 0.143405 10.2906 0.209802C10.357 0.276199 10.4096 0.355023 10.4456 0.441775C10.4815 0.528527 10.5 0.621507 10.5 0.715406C10.5 0.809306 10.4815 0.902286 10.4456 0.989038C10.4096 1.07579 10.357 1.15461 10.2906 1.22101L6.50997 5.00019L10.2906 8.77936C10.357 8.84576 10.4096 8.92459 10.4456 9.01134C10.4815 9.09809 10.5 9.19107 10.5 9.28497C10.5 9.37887 10.4815 9.47185 10.4456 9.5586C10.4096 9.64535 10.357 9.72418 10.2906 9.79057C10.2242 9.85697 10.1454 9.90964 10.0586 9.94557C9.97185 9.98151 9.87887 10 9.78497 10C9.69107 10 9.59809 9.98151 9.51134 9.94557C9.42459 9.90964 9.34576 9.85697 9.27936 9.79057L5.50019 6.00997L1.72101 9.79057C1.65461 9.85697 1.57579 9.90964 1.48904 9.94557C1.40229 9.98151 1.30931 10 1.21541 10C1.12151 10 1.02853 9.98151 0.941775 9.94557C0.855023 9.90964 0.776199 9.85697 0.709802 9.79057C0.643405 9.72418 0.590736 9.64535 0.554803 9.5586C0.518869 9.47185 0.500374 9.37887 0.500374 9.28497C0.500374 9.19107 0.518869 9.09809 0.554803 9.01134C0.590736 8.92459 0.643405 8.84576 0.709802 8.77936L4.49041 5.00019L0.709802 1.22101C0.643298 1.15467 0.590534 1.07587 0.554532 0.989109C0.518531 0.902349 0.5 0.809339 0.5 0.715406C0.5 0.621474 0.518531 0.528464 0.554532 0.441704C0.590534 0.354944 0.643298 0.276139 0.709802 0.209802Z"
    fill="currentColor" />
</svg>